<svg width="16" height="14" viewBox="0 0 16 14" fill="none" xmlns="http://www.w3.org/2000/svg">
<path d="M1.18641 7.47552L6.70156 13.303C6.95004 13.5656 7.35299 13.5656 7.60151 13.303C7.85003 13.0405 7.85003 12.6147 7.60151 12.3521L3.17263 7.67231L14.3637 7.67168C14.7151 7.67168 15 7.37062 15 6.99927C15 6.62792 14.715 6.32686 14.3636 6.3269L3.17276 6.32753L7.60147 1.6479C7.84999 1.3853 7.84999 0.959573 7.60147 0.696973C7.47725 0.565673 7.31438 0.5 7.15152 0.5C6.98865 0.5 6.82578 0.565673 6.70156 0.696973L1.18641 6.52459C1.06707 6.65069 1 6.82171 1 7.00003C1 7.17836 1.06703 7.34942 1.18641 7.47552Z" fill="white" stroke="white" stroke-width="0.5"/>
</svg>
