<svg width="26" height="27" viewBox="0 0 26 27" fill="none" xmlns="http://www.w3.org/2000/svg">
<path d="M12.9448 9.70835C12.4985 9.70252 12.1381 9.34215 12.1323 8.89585V3.47919C12.1323 3.03046 12.4961 2.66669 12.9448 2.66669C13.3935 2.66669 13.7573 3.03046 13.7573 3.47919V8.89585C13.7515 9.34215 13.3911 9.70252 12.9448 9.70835Z" fill="white"/>
<path d="M12.9448 24.875C12.4985 24.8692 12.1381 24.5088 12.1323 24.0625V18.6459C12.1323 18.1971 12.4961 17.8334 12.9448 17.8334C13.3935 17.8334 13.7573 18.1971 13.7573 18.6459V24.0625C13.7515 24.5088 13.3911 24.8692 12.9448 24.875Z" fill="white"/>
<path d="M10.1498 10.5859C9.88253 10.5878 9.63138 10.4582 9.47814 10.2392L6.37981 5.80835C6.25388 5.63197 6.20364 5.41258 6.24026 5.19897C6.27688 4.98536 6.39732 4.79523 6.57481 4.67085C6.93533 4.4518 7.40309 4.54067 7.65814 4.87669L10.7781 9.30752C10.96 9.55324 10.9862 9.88096 10.8458 10.1525C10.7055 10.424 10.4229 10.5921 10.1173 10.5859H10.1498Z" fill="white"/>
<path d="M18.849 23.0117C18.5817 23.0136 18.3305 22.884 18.1773 22.665L15.1115 18.2342C14.8542 17.8662 14.9439 17.3594 15.3119 17.1021C15.6799 16.8448 16.1867 16.9346 16.444 17.3025L19.5423 21.7334C19.7241 21.9791 19.7504 22.3068 19.61 22.5783C19.4696 22.8499 19.1871 23.0179 18.8815 23.0117H18.849Z" fill="white"/>
<path d="M8.36231 12.915C8.26902 12.93 8.17393 12.93 8.08064 12.915L2.99981 11.0192C2.78859 10.944 2.61718 10.7859 2.52517 10.5814C2.43316 10.377 2.42852 10.1438 2.51231 9.93585C2.58439 9.72256 2.74284 9.54942 2.94891 9.45874C3.15499 9.36807 3.38969 9.36823 3.59564 9.45919L8.61148 11.3442C8.97522 11.484 9.18846 11.8624 9.11968 12.246C9.0509 12.6296 8.71947 12.9103 8.32981 12.915H8.36231Z" fill="white"/>
<path d="M22.619 18.1042C22.5227 18.1019 22.4275 18.0836 22.3373 18.05L17.2781 16.1975C17.0649 16.125 16.8914 15.9672 16.799 15.7618C16.7066 15.5564 16.7036 15.3219 16.7906 15.1142C16.8658 14.903 17.0239 14.7316 17.2284 14.6395C17.4329 14.5475 17.666 14.5429 17.874 14.6267L22.9548 16.4792C23.166 16.5544 23.3374 16.7125 23.4294 16.917C23.5215 17.1214 23.5261 17.3546 23.4423 17.5625C23.3212 17.9079 22.9841 18.1297 22.619 18.1042Z" fill="white"/>
<path d="M2.99981 17.2484C2.58336 17.2589 2.22641 16.9528 2.17337 16.5396C2.12032 16.1264 2.38837 15.74 2.79398 15.645L8.02648 14.2475C8.23479 14.1913 8.45693 14.2202 8.6439 14.3279C8.83087 14.4356 8.96731 14.6133 9.02314 14.8217C9.13402 15.2547 8.87917 15.6971 8.44898 15.8184L3.19481 17.2159C3.13153 17.2353 3.06596 17.2462 2.99981 17.2484Z" fill="white"/>
<path d="M17.6573 13.3267C17.2873 13.3251 16.9638 13.077 16.8665 12.72C16.8102 12.5117 16.8391 12.2896 16.9468 12.1026C17.0546 11.9156 17.2322 11.7792 17.4406 11.7234L22.6948 10.3259C23.1286 10.2092 23.5748 10.4662 23.6915 10.9C23.8081 11.3338 23.5511 11.78 23.1173 11.8967L17.8848 13.2942C17.8114 13.3178 17.7344 13.3288 17.6573 13.3267Z" fill="white"/>
<path d="M6.32564 22.4375C6.01164 22.4349 5.72726 22.2516 5.59523 21.9667C5.46321 21.6818 5.50717 21.3463 5.70814 21.105L9.18564 17.0209C9.48084 16.6867 9.98666 16.6437 10.334 16.9234C10.4998 17.0623 10.6033 17.2617 10.6216 17.4772C10.6399 17.6928 10.5714 17.9067 10.4315 18.0717L6.95398 22.1775C6.79348 22.3531 6.56329 22.4484 6.32564 22.4375Z" fill="white"/>
<path d="M16.0756 10.8459C15.8857 10.8499 15.7008 10.7844 15.5556 10.6617C15.3899 10.5227 15.2864 10.3233 15.2681 10.1078C15.2498 9.89225 15.3182 9.6783 15.4581 9.51335L18.9356 5.36419C19.0746 5.19841 19.274 5.09491 19.4895 5.07661C19.7051 5.05831 19.919 5.12672 20.084 5.26669C20.394 5.54715 20.4364 6.01872 20.1815 6.35002L16.704 10.5209C16.5531 10.717 16.3229 10.8361 16.0756 10.8459Z" fill="white"/>
<path d="M12.9448 9.70835C12.4985 9.70252 12.1381 9.34215 12.1323 8.89585V3.47919C12.1323 3.03046 12.4961 2.66669 12.9448 2.66669C13.3935 2.66669 13.7573 3.03046 13.7573 3.47919V8.89585C13.7515 9.34215 13.3911 9.70252 12.9448 9.70835Z" fill="white"/>
<path d="M12.9448 24.875C12.4985 24.8692 12.1381 24.5088 12.1323 24.0625V18.6459C12.1323 18.1971 12.4961 17.8334 12.9448 17.8334C13.3935 17.8334 13.7573 18.1971 13.7573 18.6459V24.0625C13.7515 24.5088 13.3911 24.8692 12.9448 24.875Z" fill="white"/>
<path d="M10.1498 10.5859C9.88253 10.5878 9.63138 10.4582 9.47814 10.2392L6.37981 5.80835C6.25388 5.63197 6.20364 5.41258 6.24026 5.19897C6.27688 4.98536 6.39732 4.79523 6.57481 4.67085C6.93533 4.4518 7.40309 4.54067 7.65814 4.87669L10.7781 9.30752C10.96 9.55324 10.9862 9.88096 10.8458 10.1525C10.7055 10.424 10.4229 10.5921 10.1173 10.5859H10.1498Z" fill="white"/>
<path d="M18.849 23.0117C18.5817 23.0136 18.3305 22.884 18.1773 22.665L15.1115 18.2342C14.8542 17.8662 14.9439 17.3594 15.3119 17.1021C15.6799 16.8448 16.1867 16.9346 16.444 17.3025L19.5423 21.7334C19.7241 21.9791 19.7504 22.3068 19.61 22.5783C19.4696 22.8499 19.1871 23.0179 18.8815 23.0117H18.849Z" fill="white"/>
<path d="M8.36231 12.915C8.26902 12.93 8.17393 12.93 8.08064 12.915L2.99981 11.0192C2.78859 10.944 2.61718 10.7859 2.52517 10.5814C2.43316 10.377 2.42852 10.1438 2.51231 9.93585C2.58439 9.72256 2.74284 9.54942 2.94891 9.45874C3.15499 9.36807 3.38969 9.36823 3.59564 9.45919L8.61148 11.3442C8.97522 11.484 9.18846 11.8624 9.11968 12.246C9.0509 12.6296 8.71947 12.9103 8.32981 12.915H8.36231Z" fill="white"/>
<path d="M22.619 18.1042C22.5227 18.1019 22.4275 18.0836 22.3373 18.05L17.2781 16.1975C17.0649 16.125 16.8914 15.9672 16.799 15.7618C16.7066 15.5564 16.7036 15.3219 16.7906 15.1142C16.8658 14.903 17.0239 14.7316 17.2284 14.6395C17.4329 14.5475 17.666 14.5429 17.874 14.6267L22.9548 16.4792C23.166 16.5544 23.3374 16.7125 23.4294 16.917C23.5215 17.1214 23.5261 17.3546 23.4423 17.5625C23.3212 17.9079 22.9841 18.1297 22.619 18.1042Z" fill="white"/>
<path d="M2.99981 17.2484C2.58336 17.2589 2.22641 16.9528 2.17337 16.5396C2.12032 16.1264 2.38837 15.74 2.79398 15.645L8.02648 14.2475C8.23479 14.1913 8.45693 14.2202 8.6439 14.3279C8.83087 14.4356 8.96731 14.6133 9.02314 14.8217C9.13402 15.2547 8.87917 15.6971 8.44898 15.8184L3.19481 17.2159C3.13153 17.2353 3.06596 17.2462 2.99981 17.2484Z" fill="white"/>
<path d="M17.6573 13.3267C17.2873 13.3251 16.9638 13.077 16.8665 12.72C16.8102 12.5117 16.8391 12.2896 16.9468 12.1026C17.0546 11.9156 17.2322 11.7792 17.4406 11.7234L22.6948 10.3259C23.1286 10.2092 23.5748 10.4662 23.6915 10.9C23.8081 11.3338 23.5511 11.78 23.1173 11.8967L17.8848 13.2942C17.8114 13.3178 17.7344 13.3288 17.6573 13.3267Z" fill="white"/>
<path d="M6.32564 22.4375C6.01164 22.4349 5.72726 22.2516 5.59523 21.9667C5.46321 21.6818 5.50717 21.3463 5.70814 21.105L9.18564 17.0209C9.48084 16.6867 9.98666 16.6437 10.334 16.9234C10.4998 17.0623 10.6033 17.2617 10.6216 17.4772C10.6399 17.6928 10.5714 17.9067 10.4315 18.0717L6.95398 22.1775C6.79348 22.3531 6.56329 22.4484 6.32564 22.4375Z" fill="white"/>
<path d="M16.0756 10.8459C15.8857 10.8499 15.7008 10.7844 15.5556 10.6617C15.3899 10.5227 15.2864 10.3233 15.2681 10.1078C15.2498 9.89225 15.3182 9.6783 15.4581 9.51335L18.9356 5.36419C19.0746 5.19841 19.274 5.09491 19.4895 5.07661C19.7051 5.05831 19.919 5.12672 20.084 5.26669C20.394 5.54715 20.4364 6.01872 20.1815 6.35002L16.704 10.5209C16.5531 10.717 16.3229 10.8361 16.0756 10.8459Z" fill="white"/>
</svg>
