<svg width="26" height="27" viewBox="0 0 26 27" fill="none" xmlns="http://www.w3.org/2000/svg">
<g clip-path="url(#clip0_201_183)">
<path d="M17.875 26.5H8.12498C7.98132 26.5 7.84355 26.443 7.74196 26.3414C7.64038 26.2398 7.58331 26.102 7.58331 25.9584V12.9584C7.58331 12.8147 7.64038 12.6769 7.74196 12.5753C7.84355 12.4738 7.98132 12.4167 8.12498 12.4167H17.875C18.0186 12.4167 18.1564 12.4738 18.258 12.5753C18.3596 12.6769 18.4166 12.8147 18.4166 12.9584V25.9584C18.4166 26.102 18.3596 26.2398 18.258 26.3414C18.1564 26.443 18.0186 26.5 17.875 26.5ZM8.66665 25.4167H17.3333V13.5H8.66665V25.4167Z" fill="white"/>
<path d="M25.4583 26.5H17.875C17.7313 26.5 17.5936 26.4429 17.492 26.3413C17.3904 26.2398 17.3333 26.102 17.3333 25.9583V21.625C17.3333 21.4813 17.3904 21.3435 17.492 21.242C17.5936 21.1404 17.7313 21.0833 17.875 21.0833H25.4583C25.602 21.0833 25.7398 21.1404 25.8414 21.242C25.9429 21.3435 26 21.4813 26 21.625V25.9583C26 26.102 25.9429 26.2398 25.8414 26.3413C25.7398 26.4429 25.602 26.5 25.4583 26.5ZM18.4167 25.4167H24.9167V22.1667H18.4167V25.4167ZM8.125 26.5H0.541667C0.398008 26.5 0.260233 26.4429 0.158651 26.3413C0.0570683 26.2398 0 26.102 0 25.9583V19.4583C0 19.3147 0.0570683 19.1769 0.158651 19.0753C0.260233 18.9737 0.398008 18.9167 0.541667 18.9167H8.125C8.26866 18.9167 8.40643 18.9737 8.50802 19.0753C8.6096 19.1769 8.66667 19.3147 8.66667 19.4583V25.9583C8.66667 26.102 8.6096 26.2398 8.50802 26.3413C8.40643 26.4429 8.26866 26.5 8.125 26.5ZM1.08333 25.4167H7.58333V20H1.08333V25.4167ZM13 22.1667C12.8563 22.1667 12.7186 22.1096 12.617 22.008C12.5154 21.9064 12.4583 21.7686 12.4583 21.625V17.8333C12.3147 17.8333 12.1769 17.7762 12.0753 17.6747C11.9737 17.5731 11.9167 17.4353 11.9167 17.2916C11.9167 17.148 11.9737 17.0102 12.0753 16.9086C12.1769 16.8071 12.3147 16.75 12.4583 16.75H13C13.1437 16.75 13.2814 16.8071 13.383 16.9086C13.4846 17.0102 13.5417 17.148 13.5417 17.2916V21.625C13.5417 21.7686 13.4846 21.9064 13.383 22.008C13.2814 22.1096 13.1437 22.1667 13 22.1667ZM15.678 10.25C15.5694 10.2499 15.4633 10.2171 15.3736 10.1557L13 8.54048L10.6264 10.1557C10.5358 10.2188 10.428 10.2526 10.3175 10.2525C10.2071 10.2523 10.0993 10.2183 10.0089 10.155C9.91837 10.0917 9.84949 10.0021 9.81153 9.89841C9.77357 9.7947 9.76835 9.68184 9.79658 9.57507L10.5354 6.6609L8.31458 4.76398C8.23252 4.69374 8.17334 4.60057 8.14463 4.49644C8.11592 4.39231 8.119 4.28198 8.15347 4.17961C8.18795 4.07725 8.25223 3.98752 8.33808 3.92197C8.42393 3.85642 8.52742 3.81803 8.63525 3.81173L11.4649 3.6514L12.4908 0.856399C12.6479 0.428482 13.351 0.428482 13.507 0.856399L14.5329 3.6514L17.3626 3.81173C17.4704 3.81803 17.5739 3.85642 17.6597 3.92197C17.7456 3.98752 17.8099 4.07725 17.8444 4.17961C17.8788 4.28198 17.8819 4.39231 17.8532 4.49644C17.8245 4.60057 17.7653 4.69374 17.6833 4.76398L15.4635 6.6609L16.2023 9.57507C16.2226 9.65495 16.2244 9.73842 16.2075 9.81909C16.1907 9.89977 16.1556 9.97554 16.1051 10.0406C16.0545 10.1057 15.9897 10.1584 15.9157 10.1947C15.8417 10.231 15.7604 10.2499 15.678 10.25ZM13 7.3434C13.1062 7.3434 13.2123 7.37482 13.3044 7.43765L14.8027 8.45598L14.3314 6.59915C14.3069 6.50118 14.3101 6.39831 14.3407 6.30207C14.3713 6.20583 14.4281 6.12001 14.5048 6.05423L15.9553 4.8149L14.1169 4.70982C14.0114 4.70381 13.91 4.66707 13.8251 4.60413C13.7402 4.54118 13.6756 4.45478 13.6392 4.35557L13 2.61465L12.3608 4.35665C12.3247 4.45602 12.2601 4.54257 12.1752 4.60555C12.0902 4.66854 11.9887 4.70517 11.8831 4.7109L10.0436 4.81598L11.4942 6.05532C11.5712 6.12078 11.6283 6.20657 11.659 6.30292C11.6896 6.39927 11.6926 6.50229 11.6675 6.60023L11.1963 8.45707L12.6945 7.43873C12.7845 7.37715 12.8909 7.34395 13 7.3434Z" fill="white"/>
</g>
<defs>
<clipPath id="clip0_201_183">
<rect width="26" height="26" fill="white" transform="translate(0 0.5)"/>
</clipPath>
</defs>
</svg>
