<svg width="21" height="21" viewBox="0 0 21 21" fill="none" xmlns="http://www.w3.org/2000/svg">
<path d="M10.5 0C4.70615 0 0 4.70615 0 10.5C0 16.2938 4.70615 21 10.5 21C16.2938 21 21 16.2938 21 10.5C21 4.70615 16.2938 0 10.5 0ZM10.5 19.3846C5.6 19.3846 1.61538 15.4 1.61538 10.5C1.61538 5.6 5.6 1.61538 10.5 1.61538C15.4 1.61538 19.3846 5.6 19.3846 10.5C19.3846 15.4 15.4 19.3846 10.5 19.3846Z" fill="white"/>
<path d="M10.5 4.49086C8.86307 4.49086 7.53845 5.81548 7.53845 7.4524C7.53845 7.89394 7.90461 8.26009 8.34614 8.26009C8.78768 8.26009 9.15384 7.89394 9.15384 7.4524C9.15384 6.70932 9.75691 6.10625 10.5 6.10625C11.2431 6.10625 11.8461 6.70932 11.8461 7.4524C11.8461 7.88317 11.6415 8.28163 11.2969 8.54009C10.2738 9.28317 9.6923 10.3601 9.6923 11.4801V11.5878C9.6923 12.0293 10.0585 12.3416 10.5 12.3416C10.9415 12.3416 11.3077 11.9324 11.3077 11.4801C11.3077 10.6616 11.9 10.1016 12.2554 9.84317C13.0092 9.28317 13.4615 8.38932 13.4615 7.4524C13.4615 5.81548 12.1369 4.49086 10.5 4.49086Z" fill="white"/>
<path d="M10.5 15.6262C10.9758 15.6262 11.3616 15.2405 11.3616 14.7647C11.3616 14.2889 10.9758 13.9031 10.5 13.9031C10.0242 13.9031 9.63849 14.2889 9.63849 14.7647C9.63849 15.2405 10.0242 15.6262 10.5 15.6262Z" fill="white"/>
</svg>
