<svg width="26" height="27" viewBox="0 0 26 27" fill="none" xmlns="http://www.w3.org/2000/svg">
<path fill-rule="evenodd" clip-rule="evenodd" d="M23.8334 13.5C23.8334 7.51677 18.9833 2.66669 13 2.66669C7.01677 2.66669 2.16669 7.51677 2.16669 13.5C2.16669 19.4833 7.01677 24.3334 13 24.3334C18.9833 24.3334 23.8334 19.4833 23.8334 13.5ZM3.25002 13.5C3.25002 12.2196 3.50221 10.9518 3.99219 9.76886C4.48218 8.58593 5.20036 7.5111 6.10573 6.60573C7.0111 5.70036 8.08593 4.98218 9.26886 4.49219C10.4518 4.00221 11.7196 3.75002 13 3.75002C14.2804 3.75002 15.5483 4.00221 16.7312 4.49219C17.9141 4.98218 18.9889 5.70036 19.8943 6.60573C20.7997 7.5111 21.5179 8.58593 22.0078 9.76886C22.4978 10.9518 22.75 12.2196 22.75 13.5C22.75 16.0859 21.7228 18.5658 19.8943 20.3943C18.0658 22.2228 15.5859 23.25 13 23.25C10.4142 23.25 7.93421 22.2228 6.10573 20.3943C4.27725 18.5658 3.25002 16.0859 3.25002 13.5Z" fill="white"/>
<path fill-rule="evenodd" clip-rule="evenodd" d="M13 16.75C16.7581 16.75 19.5661 17.9655 20.9192 19.8267C20.9611 19.8842 21.0139 19.933 21.0746 19.9701C21.1353 20.0072 21.2028 20.032 21.2731 20.0431C21.3434 20.0542 21.4152 20.0513 21.4844 20.0346C21.5536 20.0179 21.6189 19.9878 21.6764 19.9459C21.734 19.904 21.7827 19.8511 21.8198 19.7904C21.857 19.7297 21.8818 19.6622 21.8928 19.5919C21.9039 19.5216 21.901 19.4498 21.8843 19.3806C21.8676 19.3114 21.8375 19.2461 21.7956 19.1886C20.2226 17.0252 17.0831 15.6667 13 15.6667C8.91691 15.6667 5.77741 17.0252 4.20441 19.1886C4.11994 19.3048 4.0851 19.4498 4.10755 19.5917C4.13 19.7337 4.2079 19.8608 4.32412 19.9453C4.44034 20.0298 4.58536 20.0646 4.72727 20.0422C4.86918 20.0197 4.99636 19.9418 5.08083 19.8256C6.43391 17.9655 9.24083 16.75 13 16.75ZM17.3333 10.25C17.3333 9.10075 16.8768 7.99855 16.0641 7.18589C15.2515 6.37323 14.1493 5.91669 13 5.91669C11.8507 5.91669 10.7485 6.37323 9.93587 7.18589C9.12321 7.99855 8.66666 9.10075 8.66666 10.25C8.66666 11.3993 9.12321 12.5015 9.93587 13.3141C10.7485 14.1268 11.8507 14.5834 13 14.5834C14.1493 14.5834 15.2515 14.1268 16.0641 13.3141C16.8768 12.5015 17.3333 11.3993 17.3333 10.25ZM9.75 10.25C9.75 9.38807 10.0924 8.56142 10.7019 7.95192C11.3114 7.34243 12.138 7.00002 13 7.00002C13.8619 7.00002 14.6886 7.34243 15.2981 7.95192C15.9076 8.56142 16.25 9.38807 16.25 10.25C16.25 11.112 15.9076 11.9386 15.2981 12.5481C14.6886 13.1576 13.8619 13.5 13 13.5C12.138 13.5 11.3114 13.1576 10.7019 12.5481C10.0924 11.9386 9.75 11.112 9.75 10.25Z" fill="white"/>
</svg>
